<?xml version="1.0" encoding="utf-8"?>
<!-- Generator: Adobe Illustrator 27.4.0, SVG Export Plug-In . SVG Version: 6.00 Build 0)  -->
<svg version="1.1" id="Layer_1" xmlns="http://www.w3.org/2000/svg" xmlns:xlink="http://www.w3.org/1999/xlink" x="0px" y="0px"
	 viewBox="0 0 48 48" style="enable-background:new 0 0 48 48;" xml:space="preserve">
<style type="text/css">
	.st0{fill:#FFFFFF;}
</style>
<path class="st0" d="M12,28.1h15.6v-3H12V28.1z M12,21.6h24v-3H12V21.6z M12,15.1h24v-3H12V15.1z M4,44V7c0-0.8,0.3-1.5,0.9-2.1
	S6.2,4,7,4h34c0.8,0,1.5,0.3,2.1,0.9S44,6.2,44,7v26c0,0.8-0.3,1.5-0.9,2.1S41.8,36,41,36H12L4,44z M7,36.8l3.8-3.8H41V7H7V36.8z
	 M7,7v29.8V7z"/>
</svg>
